<svg width="300" height="300" viewBox="0 0 300 300" fill="none" xmlns="http://www.w3.org/2000/svg">
<path d="M6 234.702H180V293.298L216 271.698L252 293.298V234.702H294V6.702H6V234.702ZM241.59 193.986C241.05 194.532 240.474 195.036 239.904 195.546C239.58 195.834 239.28 196.14 238.944 196.416C238.572 196.728 238.176 196.992 237.792 197.286C232.622 201.259 226.464 203.743 219.984 204.468L219.654 204.516C217.216 204.759 214.76 204.759 212.322 204.516L211.992 204.468C205.512 203.742 199.355 201.258 194.184 197.286C193.8 196.992 193.404 196.722 193.032 196.416C192.702 196.14 192.396 195.834 192.072 195.546C191.502 195.036 190.932 194.532 190.386 193.986C183.715 187.262 179.973 178.174 179.976 168.702C179.976 148.848 196.122 132.702 215.976 132.702C235.83 132.702 251.976 148.848 251.976 168.702C252 178.173 248.265 187.267 241.59 193.986V193.986ZM240 272.106L216 257.706L192 272.106V210.282C192.204 210.402 192.432 210.48 192.642 210.594C194.232 211.482 195.87 212.298 197.562 213.006L197.79 213.09C209.456 217.91 222.556 217.91 234.222 213.09L234.45 213.006C236.142 212.298 237.78 211.488 239.37 210.594C239.58 210.48 239.808 210.402 240.012 210.282V272.106H240ZM18 18.702H282V222.702H252V200.346C259.73 191.617 263.998 180.361 264 168.702C264 142.236 242.466 120.702 216 120.702C189.534 120.702 168 142.236 168 168.702C168 180.828 172.554 191.886 180 200.346V222.702H18V18.702V18.702Z" fill="white"/>
<path d="M72 42.702H228V54.702H72V42.702ZM102 78.702H198V90.702H102V78.702ZM42 186.702H108V198.702H42V186.702Z" fill="white"/>
</svg>
