<svg width="307" height="307" viewBox="0 0 307 307" fill="none" xmlns="http://www.w3.org/2000/svg">
<path d="M153.5 102.333C167.629 102.333 179.083 90.8793 179.083 76.75C179.083 62.6207 167.629 51.1667 153.5 51.1667C139.371 51.1667 127.917 62.6207 127.917 76.75C127.917 90.8793 139.371 102.333 153.5 102.333Z" fill="white"/>
<path d="M268.625 204.667V179.083C239.972 179.083 215.412 166.803 196.992 144.802L179.851 124.335C174.99 118.451 167.827 115.125 160.28 115.125H146.848C139.301 115.125 132.138 118.451 127.277 124.335L110.136 144.802C91.5883 166.803 67.0283 179.083 38.375 179.083V204.667C73.8079 204.667 104.764 189.7 127.917 163.094V191.875L78.285 211.702C69.7146 215.156 63.9583 223.598 63.9583 232.936C63.9583 245.6 74.1917 255.833 86.8554 255.833H115.125V249.437C115.125 231.785 129.452 217.458 147.104 217.458H185.479C189.061 217.458 191.875 220.272 191.875 223.854C191.875 227.436 189.061 230.25 185.479 230.25H147.104C136.487 230.25 127.917 238.82 127.917 249.437V255.833H220.145C232.808 255.833 243.042 245.6 243.042 232.936C243.042 223.598 237.285 215.156 228.715 211.702L179.083 191.875V163.094C202.236 189.7 233.192 204.667 268.625 204.667Z" fill="white"/>
</svg>
